# xmcd CD database file
#
# Track frame offsets:
#	150
#	17385
#	36770
#	58633
#	79763
#	106115
#	121134
#	136809
#	153615
#	175739
#	197528
#	219347
#
# Disc length: 3268 seconds
#
# Revision: 2
# Processed by: cddbd v1.5.2PL0 Copyright (c) Steve Scherf et al.
# Submitted via: CDex 1.51
#
DISCID=8e0cc20c
DTITLE=Ryszard Rynkowski - Z³ote Przeboje - Dzordz and Gonzo - Studio
DYEAR=2003
DGENRE=Pop
TTITLE0=Zwierzenia Ryska czylli jedze pociag
TTITLE1=Inny nie bede
TTITLE2=Wypijmy za bledy
TTITLE3=Nie budzcie marzen ze snu
TTITLE4=Szczesliwej drogi juz czas
TTITLE5=Swobodny blues
TTITLE6=Czemu nie tancze na ulicach
TTITLE7=Bez milosci
TTITLE8=Wszystko juz bylo procz nas
TTITLE9=Wyspa
TTITLE10=Wezcie sobie chlopaki ten kraj
TTITLE11=Dzis nadzieja rodzi sie
EXTD=Platynowa Kolekcja YEAR: 2003
EXTT0=
EXTT1=
EXTT2=
EXTT3=
EXTT4=
EXTT5=
EXTT6=
EXTT7=
EXTT8=
EXTT9=
EXTT10=
EXTT11=
PLAYORDER=
